<?xml version="1.0" standalone="no"?>
<!DOCTYPE svg PUBLIC "-//W3C//DTD SVG 20010904//EN"
 "http://www.w3.org/TR/2001/REC-SVG-20010904/DTD/svg10.dtd">
<svg version="1.0" xmlns="http://www.w3.org/2000/svg"
 width="1080.000000pt" height="1080.000000pt" viewBox="0 0 1080.000000 1080.000000"
 preserveAspectRatio="xMidYMid meet">

<g transform="translate(0.000000,1080.000000) scale(0.100000,-0.100000)"
fill="#000000" stroke="none">
<path d="M5005 10619 c-665 -51 -1314 -230 -1920 -529 -542 -268 -995 -597
-1420 -1031 -408 -417 -703 -833 -955 -1344 -284 -578 -438 -1107 -517 -1780
-25 -215 -25 -865 0 -1080 79 -674 233 -1202 517 -1780 252 -511 548 -927 955
-1344 424 -434 877 -762 1420 -1031 568 -281 1111 -439 1780 -517 215 -25 865
-25 1080 0 669 78 1212 236 1780 517 537 266 952 564 1380 994 436 437 732
847 995 1381 304 617 475 1240 529 1934 14 174 14 598 0 772 -87 1111 -499
2125 -1209 2979 -136 164 -492 520 -650 650 -341 283 -660 490 -1045 680 -616
304 -1254 478 -1940 529 -161 13 -618 12 -780 0z m1951 -912 c35 -20 323 -347
311 -352 -1 0 -45 2 -97 5 -274 19 -659 -14 -1000 -85 -142 -29 -130 -27 -130
-16 0 10 129 41 292 71 193 35 380 52 628 59 l245 6 -69 80 c-38 44 -105 117
-150 163 -74 75 -85 101 -30 69z m-3656 -233 c-294 -164 -438 -254 -621 -390
-377 -280 -759 -672 -1033 -1063 -336 -479 -616 -1119 -731 -1674 -14 -67 -27
-132 -30 -144 -5 -22 -10 -23 -90 -23 -83 0 -85 1 -81 23 3 12 13 63 21 112
121 681 452 1417 893 1984 364 468 825 879 1296 1158 l90 53 175 0 176 0 -65
-36z m4578 -18 c126 -75 325 -211 451 -310 727 -567 1274 -1333 1570 -2200 65
-188 139 -472 170 -648 l18 -108 -41 -1 c-22 0 -60 -3 -83 -5 -47 -6 -43 -13
-68 116 -108 560 -398 1228 -750 1729 -281 401 -675 802 -1055 1076 -199 143
-297 204 -605 377 l-50 28 176 0 175 0 92 -54z m352 -1323 c0 -16 -11 -116
-25 -223 -80 -626 -235 -1987 -235 -2064 0 -3 6 -6 13 -6 34 0 178 -82 232
-132 55 -52 58 -57 63 -111 4 -56 3 -59 -121 -309 -76 -151 -143 -302 -168
-376 -23 -67 -43 -121 -45 -119 -14 13 95 278 201 492 129 259 140 294 116
357 -16 43 -180 155 -267 182 -26 8 -27 4 -49 -284 -9 -113 -25 -242 -35 -287
-38 -162 -111 -288 -239 -412 l-86 -84 0 -126 c1 -145 15 -213 56 -273 l30
-43 -30 34 c-50 57 -65 118 -65 273 l-1 137 -30 -20 c-39 -27 -227 -119 -242
-119 -11 0 -40 -64 -98 -215 -32 -82 -80 -135 -124 -135 -62 0 -129 31 -169
79 -37 44 -72 131 -72 180 0 17 -6 21 -32 20 -56 -1 -287 -24 -291 -29 -3 -3
-32 -75 -65 -160 -41 -105 -66 -156 -79 -161 -22 -7 -104 11 -154 35 -20 9
-55 35 -79 58 l-43 41 6 80 c5 77 5 79 -16 73 -12 -3 -36 -6 -54 -6 -27 0 -80
-44 -399 -331 -203 -182 -370 -326 -372 -321 -6 18 223 1780 232 1790 7 6 793
60 897 61 l47 1 42 105 c44 110 76 155 110 155 14 0 20 6 20 23 0 12 12 215
26 450 14 236 24 431 21 434 -7 7 -1415 -152 -1424 -161 -4 -3 -91 -761 -194
-1684 -268 -2393 -363 -3222 -370 -3234 -8 -13 34 -39 -713 431 l-598 376 5
55 c3 30 73 593 156 1250 140 1111 241 1934 241 1961 0 6 -19 -4 -42 -23 -336
-269 -731 -398 -1262 -412 l-161 -5 155 9 c367 22 636 77 865 177 81 36 224
117 281 160 17 13 34 23 38 23 4 0 19 12 34 26 15 14 37 30 49 34 42 17 50 48
78 315 27 257 29 364 6 440 -9 30 -9 30 -10 -10 -3 -124 -92 -322 -198 -444
-163 -187 -405 -317 -697 -375 -170 -34 -432 -60 -442 -45 -5 9 71 143 139
244 79 116 192 260 324 411 74 85 140 169 148 188 50 119 -32 316 -153 373
-27 13 -27 13 -2 7 36 -8 129 -109 156 -171 29 -64 33 -153 11 -206 -9 -21
-76 -106 -150 -191 -132 -151 -245 -295 -324 -411 -41 -60 -143 -230 -143
-237 0 -16 346 26 475 57 363 87 630 277 764 543 58 115 81 197 81 291 0 55
-6 76 -40 145 -62 127 -98 169 -179 209 -39 20 -105 43 -146 52 -83 19 -282
25 -430 13 l-90 -7 105 15 c194 28 440 3 562 -56 40 -19 37 -15 -49 69 -221
215 -598 409 -1053 542 -41 12 -70 23 -65 25 12 4 636 63 1840 174 837 77
2821 263 3570 334 460 43 425 42 425 9z m-6035 -3089 c-29 -150 -36 -250 -36
-463 1 -200 0 -216 -20 -251 -19 -33 -43 -52 -84 -68 -5 -2 7 8 27 22 65 46
68 59 67 298 0 212 7 312 36 461 8 43 15 81 15 85 0 3 2 3 5 0 3 -3 -2 -40
-10 -84z m-25 -2888 c198 -194 297 -280 490 -423 569 -423 1265 -725 1927
-837 298 -50 701 -78 696 -48 -2 6 6 12 17 12 10 0 24 8 29 18 8 13 11 14 11
2 0 -12 3 -11 11 3 8 13 14 15 24 7 9 -8 14 -5 18 11 4 14 10 18 19 13 7 -4 4
3 -7 17 -19 22 -19 23 -1 9 18 -14 19 -13 13 3 -3 9 -2 17 3 17 6 0 10 -5 10
-11 0 -6 7 -3 16 5 8 9 21 17 27 17 7 1 17 2 22 4 6 1 21 3 34 3 16 2 21 6 17
17 -3 9 0 15 9 15 8 0 21 10 29 22 9 12 16 18 16 13 1 -6 7 1 15 15 8 14 14
21 15 17 0 -4 10 -3 21 4 26 13 30 20 -71 -123 -44 -62 -80 -117 -80 -122 0
-21 407 10 660 49 408 64 804 191 1215 389 483 233 867 505 1271 899 l162 158
108 -3 108 -3 -64 -75 c-291 -340 -691 -675 -1105 -925 -1184 -715 -2632 -878
-3948 -444 -566 187 -1092 482 -1567 878 -131 110 -382 356 -491 481 l-73 85
34 5 c19 3 69 3 110 1 l75 -3 175 -172z"/>
<path d="M6556 5905 c-13 -14 -42 -69 -63 -123 l-40 -97 68 3 67 4 6 46 c3 26
7 78 8 116 3 79 -8 92 -46 51z"/>
<path d="M7215 4594 c-27 -7 -118 -19 -203 -26 -110 -8 -156 -16 -159 -25 -3
-8 2 -41 12 -75 24 -88 79 -150 151 -173 100 -31 129 -6 202 179 29 71 51 130
49 131 -1 1 -24 -4 -52 -11z"/>
<path d="M6276 4503 c-83 -7 -152 -16 -154 -18 -3 -2 -7 -36 -10 -75 l-5 -71
44 -39 c58 -52 123 -82 182 -84 l48 -1 36 90 c19 50 46 118 59 153 l24 62 -38
-1 c-20 -1 -104 -8 -186 -16z"/>
</g>
</svg>
